/* XPM */
static char * grass_xpm[] = {
"100 100 79 1",
" 	c #0A290C",
".	c #0A280C",
"+	c #093C0C",
"@	c #06530B",
"#	c #055D0A",
"$	c #045709",
"%	c #034907",
"&	c #024006",
"*	c #0A2E0C",
"=	c #09370C",
"-	c #08470B",
";	c #06560A",
">	c #055C0A",
",	c #045909",
"'	c #045609",
")	c #045108",
"!	c #034707",
"~	c #09380C",
"{	c #074B0B",
"]	c #055B0A",
"^	c #045809",
"/	c #034F08",
"(	c #024206",
"_	c #055E0A",
":	c #023F06",
"<	c #043C07",
"[	c #043B08",
"}	c #063509",
"|	c #08300B",
"1	c #0A2F0C",
"2	c #063709",
"3	c #082E0B",
"4	c #0A2B0C",
"5	c #08390B",
"6	c #08330B",
"7	c #073D0A",
"8	c #054F09",
"9	c #064E0A",
"0	c #054208",
"a	c #043F07",
"b	c #034607",
"c	c #034A07",
"d	c #033F06",
"e	c #043A08",
"f	c #063609",
"g	c #024306",
"h	c #033E06",
"i	c #053B09",
"j	c #073B0B",
"k	c #093B0C",
"l	c #08460B",
"m	c #083C0B",
"n	c #074C0B",
"o	c #044608",
"p	c #055609",
"q	c #07400A",
"r	c #082F0B",
"s	c #06540A",
"t	c #0A270C",
"u	c #074A0B",
"v	c #055A0A",
"w	c #093D0B",
"x	c #08300A",
"y	c #082F0A",
"z	c #0A2A0C",
"A	c #092B0C",
"B	c #033D07",
"C	c #063409",
"D	c #08340B",
"E	c #045208",
"F	c #024707",
"G	c #054308",
"H	c #043E07",
"I	c #034507",
"J	c #09390B",
"K	c #08310A",
"L	c #092E0B",
"M	c #053808",
"N	c #07330A",
"                                                                           . +@############$%&&&&&&&",
"                                      .....................*=++++++++++++++++-;>,$'$$$$$$$$)!&&&&&&&",
"                                                         . ~{@@@@@@@@@@@@@@@@;]^/%%%%%%%%%%!(&&&&&&&",
"                .....................*=++++++++++++++++++++-;#_>^$'$$$$$$$$$$$$)!&&&&&&&&&&&&&&:<[[[",
"                                   . ~{@@@@@@@@@@@@@@@@@@@@;]_#,/%%%%%%%%%%%%%%!(&&&&&&&&&&&&&&<}|||",
"....         . 1~++++++++++++++++++++-;#_>^$'$$$$$$$$$$$$$$$$$$)!&&&&&&&&&&&&&&&&:<[[[[[[[[[[[[23   ",
"             . ~{@@@@@@@@@@@@@@@@@@@@;]_#,/%%%%%%%%%%%%%%%%%%%%!(&&&&&&&&&&&&&&&&<}||||||||||||34   ",
"+++56||||||||||78$$$$$$$$$$$$$$$$$$$$$$$$)!&&&&&&&&&&&&&&&&&&&&&&&&:<[[[[[[[[[[[[23.................",
"@@@90[[[[[[[[[[ab%c%%%%%%%%%%%%%%%%%%%%%%!(&&&&&&&&&&&&&&&&&&&&&&&&<}||||||||||||34                 ",
"###$%&&&&&&&&&&&&&&&&&&&&&&&&&&&&&&&&&&&&&&&&&&&&&&&&d<eeeeeeeeeeeef3............*=+++++++++++++++++",
"#_#$%&&&&&&&&&&&&&&&&&&&&&&&&&&&&&&&&&&&&&&&&&&&&&&&&<}||||||||||||34          . ={@@@@@@@@@@@@@@@@@",
"#_#$%&&&&&&&&&&&&g!%%%%%%%%%%!(&&&&&&h<eeeeeeeeeeeeeeij++++++++++++++++++++++++k+l;#################",
"###$%&&&&&&&&&&&&!)$$$$$$$$$$)!&&&&&&<}||||||||||||||mn@@@@@@@@@@@@@@@@@@@@@@@@@@;]#################",
"@@@90[[[[[[[[[[e[op##########^/%%%%%%oq++++++++++++k+l;#############################################",
"+++56||||||||||r|qs#_########>^$'$$$$ps@@@@@@@@@@@@@@;]#############################################",
"               . +@#_############################################################################>^$",
"....           . +@##############################################################################^/%",
"        .......t.=u@@@@@@;v######################################################];@@@@@@@@@@sp$$)!&",
"                 1~++++k+l;######################################################;l+k++++++++qo%%!(&",
"       1~+w++++++++++++++-;#_##################################>^$$$$ps@@@@@@@@@@{~ .        |[&&&&&",
"     . ~{@@@@@@@@@@@@@@@@;v####################################^/%%%%oq++++++++++=*..........re&&&&&",
"     . ={@@@@@@@@@@@@@@@@@@@@@@@@@@@@@@@@@@sp$$$$$$$$$$$$$$$$ps90[[[[23                      32[[[[[",
"       1~+w++++++++++++++++++++++++++++++++qo%%%%%%%%%%%%%%%%oq56xyxx3z...........           A3|||||",
"||||||||||||||||||||xxxxxxxxxxxxxxxxxxxxx|x}B&&&&:<[[[[[[[[[[23                                     ",
"[[[[[[[[eeeeeeeeeeeeeeeeeeeeeeeeeeeeeeeeeee<h&&&&<Cxrxxxxxxxx3z..                                   ",
"&&&&&&&&&&&&&&&&&&&:<[[[[[[[[[[[[[[[[[[[[[[[[[[[[23                                                 ",
"&&&&&&&&&&&&&&&&&&&B}x|xxxxxxxxxxxxxxxxxxxxx|||||34                                                 ",
"[[eeeeeeeeeeeeeeeeef3                                     ..............          ....       43|||||",
"|||||||||||||||||||34                                                                        32[[[[[",
" 1~++++++++++++++++=*....................................*=++++++++++++=*..z3||||D5++5D||||||}<&&&&&",
" ={@@@@@@@@@@@@@@@@{~ .                                . ~{@@@@@@@@@@@@{~ .32[[[[09@@90[[[[[[<:&&&&&",
" +@################;l+k++++++++++++++++++++++++++++++++k+l;############;-++qo!g&&!)$$)!&&&&&&&&&&&&&",
" +@#_##############];@@@@@@@@@@@@@@@@@@@@@@@@@@@@@@@@@@@@;]############];@@spEF&&g!%%!g&&&&&&&&&&&&&",
" +@#_##################################################################>^$'$$)!&&&&&&&&&&&&&&&&&&&&&",
" +@####################################################################^/%%%%!g&&&&&&&&&&&&&&&&&&&&&",
" ~{@@@@@@@@@@@@@@@@@@@@@@@@@@@@;v######];@@@@@@@@@@;]>,$$$$$$$$$$$$$$$$)!&&&&&&&&&&&&&&&&h<eeeeeeeee",
" 1~++++++++++++++++++++++++++k+l;######;l+k++++++k+-;^/%%%%%%%%%%%%%%%%!(&&&&&&&&&&&&&&&&<}|||||||||",
".............*=++++++++++++++++-;#_##_#@+ .      . ~{9G[[[[[[<d&&&&&&&&&&&&&&&&&&h<eeHI%%oq+++++++++",
"  .........t.=u@@@@@@@@@@@@@@@@;v######@k.t........*=56xyxxrxC<&&&&&&&&&&&&&&&&&&<}||78$$ps@@@@@@@@@",
"+++++++++++k+l;############>^$'$$$$$$$$9J .                  |[&&&&&&(!%%%%%%%%%%oqk+l;#############",
"@@@@@@@@@@@@@;]##########_#,/%%%%%%%%%%06           ..     . |[&&&&&&!)$$$$$$$$$$ps@@;]#############",
"###############>^$'$$$$$$$$)!&&&&&&&&&&<}||||||3z............60%%%%%%/^#############################",
"###############^/%%%%%%%%%%!(&&&&&&&&&&h<[[[[[[23          . 59$$$$'$^>#############################",
"###>^$'$$$$$$$$)!&&&&&&&&&&&&&&&&&&&&&&&&&&&&g!oq++++++++++++-;#_########################];@@@@@@@@@",
"###^/%%%%%%%%%%!(&&&&&&&&&&&&&&&&&&&&&&&&&&&&FEps@@@@@@@@@@@@;]##########################;l+k+++++++",
"$$$)!&&&&&&&&&&&&&&&&&&:<[[[[[[[[[[[[[[[[[[[[09@@@@@@@@@@@@@@@@@@@@@@@@@@@@@@@@@@@@@@@@@@{~ .       ",
"%%%!(&&&&&&&&&&&&&&&&&&<}||||||||||||||||||||D5++++++++++++++++++++++++++++++++++++++++++=*.........",
"&&&&&&&&&&&&&&&&&&&:<[[23                                                                           ",
"&&&&&&&&&&&&&&&&&&&<}||34                     ............................................          ",
"&&&&&&&:<[[[[[[[[[[23 .                                                                             ",
"&&&&&&&<}||||||||||34                                                                               ",
"[[[[[[[23          A3|||||||||||||||||||||||||||||||||||||||||||||||||||||||||||||||||||||||||||||||",
"|||||||34        . 32[[[[[[[[[[[[[[[[[[[[[[[[[[[[[[[[[[[[[[[[[[[[[[[[[[[[[[[[[[[[[[[[[[[[[[[[[[[[[[[",
"                   |[&&&&&&&&&&&&&&&&&&&&&&&&&&&&&&&&&&&&&&&&&&&&&&&&&&&&&&&&&&&&&&&&&&&&&&&&&&&&&&&",
"                   |[&&&&&&&&&&&&&&&&&&&&&&&&&&&&&&&&&&&&&&&&&&&&&&&&&&&&&&&&&&&&&&&&&&&&&&&&&&&&&&&",
"              .....re&&&&&&&&&&&&&&&&&&&&&&&&&&&&&&&&&&&&&&&&&&&&&&&&&&&&&&&&&&&&&&&&&&&&&&&&&&&&&&&",
"                   |[&&&&&&&&&&&&&&&&&&&&&&&&&&&&&&&&&&&&&&&&&&&&&&&&&&&&&&&&&&&&&&&&&&&&&&&&&&&&&&&",
".............*=++++qo%%%%%%%%%%%%%%%%%%%%%%%%%%%%%%%%%%%%%%%%%%%%%%%%%%!g&&&&&&&&&&&&&&:<[[[[[[[[[[[",
"           . ~{@@@@sp$$$$$$$$$$$$$$$$$$$$$$$$$$$$$$$$$$$$$$$$$$$$$$$$$$)!&&&&&&&&&&&&&&<}|||||||||||",
"+++++++++++k+l;##########################################>^$$$$$$$$$$$$E!&&:<[[[[[[[[[[23           ",
"@@@@@@@@@@@@@;]##########################################,/%%%%%%%%%%%%!g&&<}||||||||||34           ",
"#####################################>^$$$$$$$$$$$$$$$$ps90[[[[[[[[[[[[[[[[23                       ",
"#####################################^/%%%%%%%%%%%%%%%%oq56xyxxxxxxxxxx||||34                       ",
"@@@@@@@@@@@@@@@@@@@@@@@@@@@@@@@@@@@@@90[[[[[[[[[[[[[[[[23                                           ",
"+++++++++++++++++++++++++++++++++++++56xyxxxxxxxxxxxxxx3z..                                         ",
"                                                                                             43|||||",
"......................................                                                       32[[[[[",
"                                                                           ArxKxxxxx|||||||||}<&&&&&",
"                                                                           32[[[[[[[[[[[[[[[[<:&&&&&",
"||xxxxxxxxxxxxxxxKxrA                                43|||xxxxxxxxxxxKxrA  32[[[[[[<d&&&&&&&&&&&&&&&",
"[[[[[[[[[[[[[[[[[[[23                                32[[[[[[[[[[[[[[[[23  ArxKxx|x}B&&&&&&&&&&&&&&&",
"&d<[[[[[[[[[[[[[[[[2L .        43|||||||||||xxxxxxx|x}B&&:<[[[[[[[[[[[[23          |[&&&&&&&&&&&&(!%",
"&B}x|xxxxxxxxxxxxKxrA          32[[[[[[[[[[[[[[[[[[[[<:&&B}x|xxxxxxxxKxrA        . |[&&&&&&&&&&&&!)$",
"[MN|||||||||||xxxxxxxxxxxxxxx|x}B&&&&&&&&&&:<[[[[[[[[[[[[23                     ...60%%%%%%%%%%%%/^#",
"|NM[[[[[[[[[[[[[[[[[[[[[[[[[[[[<:&&&&&&&&&&B}x|xxxxxxx|||34                      . 59$$$$$$$$$$'$^>#",
"|}<&&&&&&&&&&d<[[[[ab%%%%%%IHeeeeeeeeeeeeeef3..................................*=k+l;###############",
"[<d&&&&&&&&&&B}x|xx78$$$$$$87xxx|||||||||||34                                . ~{@@;]###############",
"&&&&&&&&&&&&&[|  . +@######;l+k++++++++++++++++++++++++++++++++++++++++++++++k+l;###################",
"&&&&&&&&&&&&&[| .. +@#_####];@@@@@@@@@@@@@@@@@@@@@@@@@@@@@@@@@@@@@@@@@@@@@@@@@@;]###################",
"&&&&&g!%%%%c%GD  . +@#_#############################################################################",
"&&&&&!)$$$$$$95 .. +@###############################################################################",
"[[[e[09@@@@@@{= .. ={@@;]##########################################################];@@@@@@@@@@@@@@@",
"|||||D5++++++~1    1~k+l;##########################################################;l+k+++++++++++++",
"xxxxxxxxxxxxxxxxxxxxxxx78$$$$$$$$$$$$$$$$$$$$ps@@@@@@@@@@@@@@@@@@@@@@@@@@@@@@@@@@@@{~ .             ",
"[[[[[[eeeeeeee[[[[[[eeeHI%%%%%%%%%%%%%%%%%%%%oq++++++++++++++++++++++++++++++++++++=*...............",
"[[[[[[[[[[[[[[[[[[[[[[[[[[[[[[[[[[[[[[[[[[[[[23                                                     ",
"xxxxxxxxxxxxxxxxxxxxxxxxxxxxxxxxxxxxxxxxxxxxx3z.....................................                ",
"                                ........................                                            ",
"                                                                                                    ",
"...............................*=++++++++++++++++++++++~1                                           ",
"                             . ~{@@@@@@@@@@@@@@@@@@@@@@{~ .                                         ",
"+++++++++++++++++++++++++++++k+l;######################@+ .                          43|||||||||||||",
"@@@@@@@@@@@@@@@@@@@@@@@@@@@@@@@;]####################_#@+ .                          32[[[[[[[[[[[[[",
"#######];@@@@@@@@@@;]################################_#@+ .          43||||||||||||||}<&&&&&&&&&&&&&",
"#####_#;-++++++++++-;#_################################@+ .          32[[[[[[[[[[[[[[<:&&&&&&&&&&&&&",
"@@@@@@@{~ .      . +@#_##############];@@@@@@@@@@@@@@sp87||||||||||||}<&&&&&&&&&&&&&&&&&&&&&&&&&&&&&",
"+++++++=*........t.k@################;l+k++++++++++++qoba[[[[[[[[[[[[<:&&&&&&&&&&&&&&&&&&&&&&&&&&&&&",
"                 . ~{@@@@@@@@@@sp$$$$87||||||||||||||}<&&&&&&&&&&&&&&&&&&&&&&&&&&&&d<[[[[[[[[[[[[[[[",
"........           1~++++++++++qo%%%%IHeeeeeeeeeeeeee<h&&&&&&&&&&&&&&&&&&&&&&&&&&&&<}|||||||||||||||",
"                               |[&&&&&&&&&&&&&&&&&&&&&&&&&&&&&&&&&&&&&&&&&&&&&&&&&&[|               "};
