/* XPM */
static char * stone_xpm[] = {
"100 100 31 1",
" 	c #0A290C",
".	c #055D0A",
"+	c #024006",
"@	c #142D15",
"#	c #115E14",
"$	c #000100",
"%	c #0E4211",
"&	c #000000",
"*	c #373531",
"=	c #272626",
"-	c #4B4947",
";	c #0A280C",
">	c #08240A",
",	c #041805",
"'	c #043406",
")	c #030E03",
"!	c #055A0A",
"~	c #043506",
"{	c #08250A",
"]	c #042405",
"^	c #072209",
"/	c #082309",
"(	c #051C06",
"_	c #09260B",
":	c #055C0A",
"<	c #044507",
"[	c #09270B",
"}	c #055008",
"|	c #023E06",
"1	c #033005",
"2	c #023F06",
"                                                                              ..............++++++++",
"                                                                              ..............++++++++",
"                                                           .....................++++++++++++++++++++",
"                                                           .....................++++++++++++++++++++",
"                          @@@@@@@@    ..........................++++++++++++++++++++++++++++++++    ",
"                          @@@@@@@@    ..........................++++++++++++++++++++++++++++++++    ",
"                ..########$$$$$$$$########++++++++++++++++++++++++++++++++++++++++                  ",
"                ..########$$$$$$$$########++++++++++++++++++++++++++++++++++++++++                  ",
"....++++++++++++%%$$$$$$$$&&**&&$$$$&&$$$$%%++++++++++++++++++++++++                                ",
"....++++++++++++%%$$$$$$$$&&**&&$$$$&&$$$$%%++++++++++++++++++++++++                                ",
"....++++++++++%%$$&&&&****************&&$$%%%%%%%%%%%%@@@@@@@@@@@@@@@@@@          ..................",
"....++++++++++%%$$&&&&****************&&$$%%%%%%%%%%%%@@@@@@@@@@@@@@@@@@          ..................",
"....++++++++%%$$&&********************&&&&&&&&&&&&&&&&$$$$$$$$$$$$$$$$$$####........................",
"....++++++++%%$$&&********************&&&&&&&&&&&&&&&&$$$$$$$$$$$$$$$$$$####........................",
"          @@&&&&********************&&&&==============================&&$$$$##......................",
"          @@&&&&********************&&&&==============================&&$$$$##......................",
"          @@&&&&******************&&&&====================================&&$$##..................++",
"          @@&&&&******************&&&&====================================&&$$##..................++",
"        @@&&&&********************&&========================================&&$$##            ++++++",
"        @@&&&&********************&&========================================&&$$##            ++++++",
"        ##$$&&********&&&&&&******&&&&================================&&&&====&&@@            ++++++",
"        ##$$&&********&&&&&&******&&&&================================&&&&====&&@@            ++++++",
"        @@&&******&&&&&&************&&====&&&&&&&&&&&&&&&&&&&&&&========&&====&&&&@@                ",
"        @@&&******&&&&&&************&&====&&&&&&&&&&&&&&&&&&&&&&========&&====&&&&@@                ",
"++++++++%%$$********&&**************&&==&&&&----------------**&&&&==============&&@@                ",
"++++++++%%$$********&&**************&&==&&&&----------------**&&&&==============&&@@                ",
"++++++%%$$&&************************&&&&&&----------------------&&&&============&&&&@@              ",
"++++++%%$$&&************************&&&&&&----------------------&&&&============&&&&@@              ",
"      @@&&****************&&&&&&&&&&&&--------------------------&&&&&&============&&&&@@      ++++++",
"      @@&&****************&&&&&&&&&&&&--------------------------&&&&&&============&&&&@@      ++++++",
"  ....##$$&&**************&&--------------------------------------&&&&&&============&&$$%%++++++++++",
"  ....##$$&&**************&&--------------------------------------&&&&&&============&&$$%%++++++++++",
"  ....##$$&&&&&&&&&&****&&--------------------------------------------&&&&============$$&&&&&&&&++++",
"  ....##$$&&&&&&&&&&****&&--------------------------------------------&&&&============$$&&&&&&&&++++",
"  ....##$$&&======&&****&&----------------------------------------------&&&&==========$$******&&&&++",
"  ....##$$&&======&&****&&----------------------------------------------&&&&==========$$******&&&&++",
"    @@&&&&==========&&**&&------------------------------------------------&&&&========$$********&&&&",
"    @@&&&&==========&&**&&------------------------------------------------&&&&========$$********&&&&",
"    @@&&&&=====&=====&&&&---------------------------------------------------&&&&====&&$$**********&&",
"    @@&&&&=====&=====&&&&---------------------------------------------------&&&&====&&$$**********&&",
"....##$$==========&&&&--------&&&&&&&&----------------------------------------&&&&==$$************&&",
"....##$$==========&&&&--------&&&&&&&&----------------------------------------&&&&==$$************&&",
"..##$$&&&&&&====&&&&------&&&&&&----&&&&----------------------------------------&&&&$$************&&",
"..##$$&&&&&&====&&&&------&&&&&&----&&&&----------------------------------------&&&&$$************&&",
"..##$$====&&====&&--------&&------------------------------&&&&&&------------------$$**************&&",
"..##$$====&&====&&--------&&------------------------------&&&&&&------------------$$**************&&",
"%%$$&&==========&&------------------------------------&&&&====&&&&&&--------------&&**************&&",
"%%$$&&==========&&------------------------------------&&&&====&&&&&&--------------&&**************&&",
"%%$$==========&&&&----------------------&&------------==============&&------------&&&&************&&",
"%%$$==========&&&&----------------------&&------------==============&&------------&&&&************&&",
"++$$======&&&&&&------------------------&&------------------------====&&&&----------&&************&&",
"++$$======&&&&&&------------------------&&------------------------====&&&&----------&&************&&",
"  &&&&====&&----------------------------&&--------------------------======&&--------$$************&&",
"  &&&&====&&----------------------------&&--------------------------======&&--------$$************&&",
";;&&&&&&==&&------------------------------------------------------------====&&------$$************&&",
";;&&&&&&==&&------------------------------------------------------------====&&------$$************&&",
">>&&==&&&&&&--------------------------------------------------------------====&&----&&$$**********&&",
">>&&==&&&&&&--------------------------------------------------------------====&&----&&$$**********&&",
"&&&&======&&----------------------------------------------------------------====------$$**********&&",
"&&&&======&&----------------------------------------------------------------====------$$**********&&",
"&&========&&----------------------------------------------------------------====------&&**********&&",
"&&========&&----------------------------------------------------------------====------&&**********&&",
"&&========&&------&&&&&&&&&&&&--------------------------------------------------------&&**********&&",
"&&========&&------&&&&&&&&&&&&--------------------------------------------------------&&**********&&",
"&&========&&----============&&&&------------------------------------------------------&&********&&&&",
"&&========&&----============&&&&------------------------------------------------------&&********&&&&",
"&&========&&----======----====&&&&&&&&------------------------------------------------&&********&&++",
"&&========&&----======----====&&&&&&&&------------------------------------------------&&********&&++",
"&&========&&----------------==========&&----------------------------------------------$$********&&++",
"&&========&&----------------==========&&----------------------------------------------$$********&&++",
"&&========$$------------------------====----------------------------------------------$$******&&&&++",
"&&========$$------------------------====----------------------------------------------$$******&&&&++",
"&&========&&--------------------------------------------------------------------------$$&&&&&&&&,,''",
"&&========&&--------------------------------------------------------------------------$$&&&&&&&&,,''",
"&&&&&&&&&&$$&&&&&&--------------------------------------------------------------------$$)))))))),,!!",
"&&&&&&&&&&$$&&&&&&--------------------------------------------------------------------$$)))))))),,!!",
"))))))))))$$****&&&&&&&&--------------------------------------------------------------$$)))))))),,..",
"))))))))))$$****&&&&&&&&--------------------------------------------------------------$$)))))))),,..",
",,,,,,,,))$$******====&&&&&&&&--------------------------------&&&&&&&&&&------------&&$$)),,,,,..,..",
",,,,,,,,))$$******====&&&&&&&&--------------------------------&&&&&&&&&&------------&&$$)),,,,,..,..",
",,,,,,,,))$$&&******==========&&&&------------------------------------&&&&------&&$$$$)))),,~~......",
",,,,,,,,))$$&&******==========&&&&------------------------------------&&&&------&&$$$$)))),,~~......",
"{{,,,,,,))))&&**********==========&&--------------------------------&&&&$$$$$$$$$$)))),,,,,,        ",
"{{,,,,,,))))&&**********==========&&--------------------------------&&&&$$$$$$$$$$)))),,,,,,        ",
"++]],,,,,,))$$&&****************====&&----------------------------&&&&&&)))))))))),,,,,,^^          ",
"++]],,,,,,))$$&&****************====&&----------------------------&&&&&&)))))))))),,,,,,^^          ",
"    //,,,,))))&&&&&&&&&&&&&&&&&&======&&------------------------&&&&)))))))),,,,,,,,,,,,            ",
"    //,,,,))))&&&&&&&&&&&&&&&&&&======&&------------------------&&&&)))))))),,,,,,,,,,,,            ",
"      ,,,,,,))))))))))))))))))&&&&**==&&----------------------&&&&)))),,,,,,,,,,,,,,((              ",
"      ,,,,,,))))))))))))))))))&&&&**==&&----------------------&&&&)))),,,,,,,,,,,,,,((              ",
"      __,,,,,,,,,,,,,,,,,,,,))))$$&&**&&--------------------&&&&)))),,,,,,,,,,,,,,                  ",
"      __,,,,,,,,,,,,,,,,,,,,))))$$&&**&&--------------------&&&&)))),,,,,,,,,,,,,,                  ",
"......::<<,,,,,,,,,,,,,,,,,,,,))))$$$$$$$$$$$$$$$$$$$$$$&&&&&&)))),,,,,,,,,,          ++++++++++++++",
"......::<<,,,,,,,,,,,,,,,,,,,,))))$$$$$$$$$$$$$$$$$$$$$$&&&&&&)))),,,,,,,,,,          ++++++++++++++",
"........    [[^^,,,,,,,,,,,,,,,,))))))))))))))))))))))))))))))))),,,,,,,,+++++++++++++++++++++++++++",
"........    [[^^,,,,,,,,,,,,,,,,))))))))))))))))))))))))))))))))),,,,,,,,+++++++++++++++++++++++++++",
"                    ....}},,,,,,,,,,,,,,,,,,,,,,,,,,,,,,,,,,,,,,,,,,]]||++++++++++++++++++++++++++++",
"                    ....}},,,,,,,,,,,,,,,,,,,,,,,,,,,,,,,,,,,,,,,,,,]]||++++++++++++++++++++++++++++",
"                          ,,,,,,,,,,,,,,,,,,,,,,,,,,,,,,,,,,,,,,1122++++++++++++++++                ",;
"                          ,,,,,,,,,,,,,,,,,,,,,,,,,,,,,,,,,,,,,,1122++++++++++++++++                "};
