/* XPM */
static char * backgraund_xpm_xpm[] = {
"50 50 3 1",
" 	c #0A290C",
".	c #055D0A",
"+	c #024006",
"                                       .......++++",
"                              ..........++++++++++",
"                   .............++++++++++++++++  ",
"        .............++++++++++++++++++++         ",
"..++++++++++++++++++++++++++++++++                ",
"..+++++++++++++++++++++++++              .........",
"..+++++++......++++        .......................",
"         .........................................",
"         ........................................+",
"             ............................      +++",
"    ............................+++            +++",
"                      +++++++++                   ",
"+++++++++++++++++++++++++                         ",
"++++++++++                                        ",
"                                               +++",
" .........                   .......  +++..+++++++",
" ......................................+++++++++++",
" ...................................++++++++++++++",
"                ....      .++++++++++++++++++     ",
"       .............           ++++++++++  .......",
"..............++++++           ++++...............",
"........++++++++++++++++       ...................",
"..+++++++++++++++++++++......................     ",
"++++++++++++                                      ",
"++++++++++                                        ",
"++++                                              ",
"          ++++++++++++++++++++++++++++++++++++++++",
"          ++++++++++++++++++++++++++++++++++++++++",
"          ++++++++++++++++++++++++++++++++++++++++",
"       .............................++++++++      ",
".............................+++++++++            ",
"...................+++++++++                      ",
"                                                  ",
"                                               +++",
"                                      ++++++++++++",
"++++++++++                 +++++++++      ++++++++",
"+               +++++++++++++             +++++++.",
" +++++++++++++++++++++                    ........",
"+++++++   ....                          ..........",
"+++++++   ........................................",
"+++....   ........................................",
"            ..............................        ",
"+++++++++++++++++++++++                           ",
"                                                  ",
"                                                  ",
"                ............                      ",
"............................               +++++++",
"....      ..................       +++++++++++++++",
"          .........        +++++++++++++++++++++++",
"                ++++++++++++++++++++++++++        "};
