/* XPM */
static char * backgraund_xpm[] = {
"50 50 14 1",
" 	c #294428",
".	c #357F32",
"+	c #38A735",
"@	c #135411",
"#	c #0B5009",
"$	c #22F11B",
"%	c #043894",
"&	c #0E5009",
"*	c #0D9404",
"=	c #1EAE1A",
"-	c #F0E912",
";	c #940453",
">	c #2B6C29",
",	c #947A04",
" .+ @   @        + ........   .  #   # ++. #    + ",
" .+ @  ..    ... ...@.  ..@  ... #   ...$$  #.%%+&",
" .*&     @ @. #@ + @.. = .@ .... ..   #+$+  &%&&%+",
" %%%*+  @@.@.%%% + ...   .. . ..  &   &&$&&&&%-%%+",
".%-%.+  @@&&&%-%.&&@$@ $ $&&;*.&&&#& @# $... #%=++",
".$%%..#@@@ @.%%%&&&&&$&$ $&&;-;&&&&&&&&& &.&$##= +",
"+$.*..#@@@.>@.+#@+ @+$ $  .+*;;......&.. @*$ $#.=+",
"+$#* .# @@#*..+*.....$..$ ..*.*..@=*&&@#$ *$ $*.=.",
"+.$* .#@@;;*@&+*..+...$=$  .*.*..@.*&&.&$ *$& *.=.",
"+.$* .@*;-;; .+*&&&+&&$&$  $*&$*&.&&*&+..**.+ *&=+",
"+.$* .@#;;;* $$*# @+&*$@$ $ *.$*...>*.+..,,,  *  +",
"+.$*&.@#@ .*   *$ .+.*.$    *  * .%%* +..*,,&&;;.+",
"+.;*&..#*@.** $*   +.*  $ $.*.*.*%-%&*+..*,*&&;-&+",
"+;-;&*.# ..**$ *$ ..*&&$$ $&*&*+*%%%**+.&* *&&;;;+",
"+;;;&*.# .&**$&,$ &&* .$$$ &*$&**&%&**+.&*$*.;; ;+",
"++.;$*.# @ .*$.,,, &*&&&$$ &*.&*$*.>**+..*$*.*$ #+",
"+$@*.&&& & .*$&,-,*&*&..$..$*.&*$*..**+...**&*. #&",
"+$#*.&.# @@.*$,,,, **+..$,,,*.$*+*.&**+.&$**@*. +&",
"+$#*.$.. @..**&+*  **+&&$,-,*.$.*$* **+.&$*.**.  &",
"+$+*.$.. @..**.+*  *.+&..$,,*. .*$...*+.;$*.**.$ #",
"+$#*.$. #...**.+*. **+...  .*. .*$.. *.;-;*.**.$ &",
"+$#*..$  @..** +*. **$++=$ .&. .*+ .>*.;;;*.**.$ &",
"+$#,,*$  @..**=+*= *.*+.=$ .$...*+ .+*.. .*.**.. &",
"+$,-,,$  @..**=+$%%*.*+*    . .. * .+*$.$ *.%% .$ ",
"+$,,,,*  @..**=%%%%=.*+*   ..&..$*&+&*$.& *.%-%.$ ",
"+$$*..* $.&.**&%%-% .&*.*$ .....$*.+>*$.#%%%%% .$ ",
" $$*..* $.. **.+%%* ..*+*$ ..&.;;*+.>*$..& *** .  ",
" $$*..* $.. .*&+.% *..*+.* ;.>;;;*+. *$.&. *** .$ ",
" $$;..* $.@ .*&+.* *.. *.* $;;;-;*+. *$.&. ***. $ ",
" $ ;;.*.$.@ .*&+.*>*.. *. * .*;; *+..* . ..***. . ",
" $;-;;*..   .* +**  *..*+$*$.*..  *$ *$.&..***& .$",
" $@;;;*.. . ;;.+**  *.. *. *. *. &*+&*$..&.* *. .$",
" $@*.+ *.  ;;;$+**  *..&*. *. *. >*+=*$=.*.*.*. .$",
" $ *@+ *. . ;-$*.$* &*.&** *. *.  *+.*$..*.,&*& .$",
" $  *& *.   $*$*.$* .*=.** $*.*.& *+.*$&.&,-,*. .$",
"    *+ *.   $**+.$*  *...* $*. *. *+. *..,,,,*.. $",
"     + *. $ $**+.&*& *..&*+$.* *.$*+. *..@*,$*.  $",
"  +   .* .$ $**$..*. .*...+ .* *.+*$+  ..&*, *&& $",
"  +*@ .* .$ .*  .$*. =*.@$. ..*.*&*  .  .>** *.. $",
". + * .* .$  * $. *   *.  . ..* * $*.. ..*.* *&+ $",
"+ + *. * .$  & $..*  ,,&... ..* %%$$&. +.*@* *&+ +",
"+ + *.,, .$$   +$$.*,,,,.@$$. .%%-%$..& .&&* *&+ +",
"+ + +-,, .$.  ..$$**,-,,..$..&.*%%%$&&. ..=.** +  ",
"  + +,,. .$ + @+$ **&,,**&&&&..*.%%.$.  + =.%%%++ ",
"  . ***. .$&&;&&&$&*&@ **...... .**+$.. ...%%-% + ",
"    $**. .$;;;;..$.*.. &*......$ .*.$.=  +=&%%& ++",
"+    . +  $;;-;..$$... &*.@ .... ...$... ...$ =+++",
"+      +  $.;;; +  &  @&*.@ =    @ +$......&$ = ++",
"+   $   + $+ +  +  &&=&&+* @=...$...$$.=    $  =++",
"+   $ +=+ $ ++  +.....&&.*......$@  +@=  ++ $ == +"};
