/* XPM */
static char * bush_xpm[] = {
"50 50 5 1",
" 	c #FFFFFF",
".	c #000000",
"+	c #0A3E05",
"@	c #105B08",
"#	c #14700B",
"                                                  ",
"                                                  ",
"                                                  ",
"             ....                                 ",
"         .....+......                             ",
"        ...++++++++..                             ",
"       ..++++++++++.................              ",
"      ..++++++++++..@@@@@@@@@@@@@@@...            ",
"      ..+++++++++..@@@@@@@@@@@@@@@@@@..           ",
"     ..++++++++++.@@@@@@@@@@@@@@@@@@@@..          ",
"     ..++++...+++..@@@@@@@@@@@@@@@@..@@.          ",
"     .+++...++++++.@@...........@@@@.@@..         ",
"     .++++.+++++++.@..########@..@@@@@@@.         ",
"    ..++++++++++++...###########..@@@@@@..        ",
"    .++++++++......#############...@@@@@@..       ",
"    ..+++++++.###################...@@@@@@..      ",
"    ......++.######################..@@@@@@.      ",
"    ..@@@.++.#######################..@@@@@.      ",
"   ..@@@@@.+.########################..@@@@.      ",
"   ..@@@@@..##########################..@@..      ",
"   .@@@@@..####....####################..@.       ",
"  ....@@..###...##..####################...       ",
"  .@@.@@.####.###############...#########.        ",
" ..@@@@@.##################..++...#######.        ",
" .@@@@@..###########.######+++++++.######..       ",
" .@@@...############.############++..#####.       ",
" ..@@.##############.#############+++.####.       ",
"  ..@.##############################++.###.       ",
"   ...###############################++.##..      ",
"    ..################################++###.      ",
"    ..################################++###.      ",
"    ..###......############################.      ",
"     .##++++++..###########################.      ",
"     .##+++##++....########################.      ",
"     .########+++++.#######################.      ",
"     .############++#######################.      ",
"     .#####################################.      ",
"     ....##################################.      ",
"     .##....###############################.      ",
"     .###++....################.....######..      ",
"     ..###+++++..##################..###...       ",
"      .#####+++++.################.......         ",
"      ..########++.##############...              ",
"       .........+++.############..                ",
"               ..#+.###########..                 ",
"                ..#.##########..                  ",
"                 ..............                   ",
"                                                  ",
"                                                  ",
"                                                  "};
