/* XPM */
static char * cat_xpm[] = {
"50 50 2 1",
" 	c #FFFFFF",
".	c #9C47A7",
"                                                  ",
"                                                  ",
"                                                  ",
"                                                  ",
"                                                  ",
"                                                  ",
"                                                  ",
"                                                  ",
"                                                  ",
"                                ....              ",
"                               ......             ",
"      ...                    ........             ",
"      .....                 ..........            ",
"      .......              ...... .....           ",
"      .........           .....    ....           ",
"      ............ ...   .....      ....          ",
"      .... ..................       ....          ",
"       ...   ...............         ....         ",
"      ....     .............         ....         ",
"      ....                            ...         ",
"      ....                            ...         ",
"     ....                             .....       ",
"     ....                             ......      ",
"    ....                                .....     ",
"   .....                                ......    ",
"   ....                                   ....    ",
"  ....                                     ...    ",
"  ....      ...             ...            ....   ",
"  ...       ...             ...            ....   ",
"  ...       ...             ...             ...   ",
" ....                                       ...   ",
" ....                                      ....   ",
" ....                                      ....   ",
" ....                                      ....   ",
" ....     .....               ...         ....    ",
"  ...     .........         .....         ....    ",
"  ....    .......................        ....     ",
"  ....       ....................        ....     ",
"   ....          .............          ....      ",
"   .....                              ......      ",
"    .....                           .......       ",
"     ......                       ........        ",
"      .........               ..........          ",
"       ...............................            ",
"         ...........................              ",
"             ...................                  ",
"                                                  ",
"                                                  ",
"                                                  ",
"                                                  "};
