/* XPM */
static char * flaver_xpm[] = {
"50 50 6 1",
" 	c #FFFFFF",
".	c #000000",
"+	c #C077C8",
"@	c #AD5BB6",
"#	c #D3B928",
"$	c #E9CA1C",
"                                                  ",
"                                                  ",
"                                                  ",
"                                                  ",
"                     ....                         ",
"                   ...++.....                     ",
"                  ..++++++++..                    ",
"                 ...+++++++++..                   ",
"                ..++++++++++++..                  ",
"               ..++++++++++++++.                  ",
"               ..++++++++++++++..                 ",
"        ........++++++++++++++++.                 ",
"       ..+++++..++++++++++++++++.                 ",
"     ...+++++++.++++++++++++++++.                 ",
"    ..+++++++++.++++++++++++++++.                 ",
"   ..++++++++++..+++++++++++++++.                 ",
"  ..+++++++++++..+++++++++++++++........          ",
"  .+++++++++++++.+++@++@@@+++++..++++++...        ",
"  .+++++++++++++..++@@@@@@@@@+...+++++++...       ",
"  .++++++++++++++..+@@@@@@@@@@..++++++++++..      ",
"  .++++++++++++@++..@@@@@@@@@..++++++++++++..     ",
"  .++++++++++++@@@@..@@@@@@@..@@++++++++++++.     ",
"  .++++++++++++@@@@@.........@@@@+++++++++++.     ",
"  .++++++++++@@@@@@@...###...@@@@@++++++++++.     ",
"  .+++++++++++@@@@@...##$$#..@@@@@++++++++++.     ",
"  .++++++++++++@@@@..##$$$##.@@@@@@+++++++++.     ",
"  ..+++++++++++++....###$###.@@@@@@+++++++++.     ",
"   .++++++++++++...@..#####.......+++++++++..     ",
"   ..+++++++++...@@@@..###...@@@......+++++.      ",
"    ....++++....+@@@@.......@@@@@+++.........     ",
"       .......++@@@@@@.@@..@@@@@+++++++++++...    ",
"      ..+++++++++++@@@.@@@..@@@++++++++++++++..   ",
"     ..+++++++++++@@@@.@@@@..@++++++++++++++++..  ",
"    ..+++++++++++++++..@@@@@..+++++++++++++++++.  ",
"    .+++++++++++++++..@@@++@+..++++++++++++++++.  ",
"    .+++++++++++++++.+++++++++.++++++++++++++++.  ",
"    .+++++++++++++++.+++++++++..++++++++++++++..  ",
"    .+++++++++++++++.++++++++++..++++++++++++..   ",
"    .++++++++++++++..+++++++++++.+++++++++++..    ",
"    ..+++++++++++++.++++++++++++..+++++++++...    ",
"    ...+++++++++++..+++++++++++++..+++++++...     ",
"     ..++++++++++..+++++++++++++++..++++++.       ",
"      ...+++++++..++++++++++++++++....++...       ",
"       ......++...++++++++++++++++.  ....         ",
"           ......+++++++++++++++++.               ",
"                ....+++++++++++++..               ",
"                   ..............                 ",
"                                                  ",
"                                                  ",
"                                                  "};
