/* XPM */
static char * flaver_xpm[] = {
"50 50 14 1",
" 	c #0A290C",
".	c #055D0A",
"+	c #024006",
"@	c #0E4211",
"#	c #000100",
"$	c #000000",
"%	c #C077C8",
"&	c #142D15",
"*	c #115E14",
"=	c #AD5BB6",
"-	c #D3B928",
";	c #E9CA1C",
">	c #174519",
",	c #18601B",
"                                       .......++++",
"                              ..........++++++++++",
"                   .............++++++++++++++++  ",
"        .............@@@@++++++++++++++++         ",
"..+++++++++++++++++@@####@@@@+++++                ",
"..++++++++++++++++@##$%%$##$$&           .........",
"..+++++++......++@#$%%%%%%%%$#*...................",
"         .......*#$$%%%%%%%%%$#*..................",
"         ......*#$%%%%%%%%%%%%$#*................+",
"             .*#$%%%%%%%%%%%%%%#*........      +++",
"    ....*******#$%%%%%%%%%%%%%%$#@+            +++",
"       &$$$$$$$$%%%%%%%%%%%%%%%%$&                ",
"+++++@@#$%%%%%$$%%%%%%%%%%%%%%%%$&                ",
"++++@##$%%%%%%%$%%%%%%%%%%%%%%%%$&                ",
"   &$$%%%%%%%%%$%%%%%%%%%%%%%%%%$&             +++",
" .*#$%%%%%%%%%%$$%%%%%%%%%%%%%%%#***&&@@+..+++++++",
" *#$%%%%%%%%%%%$$%%%%%%%%%%%%%%%$#######@@++++++++",
" *#%%%%%%%%%%%%%$%%%=%%===%%%%%$$%%%%%%$##@+++++++",
" &$%%%%%%%%%%%%%$$%%=========%$$$%%%%%%%$$#@+     ",
" &$%%%%%%%%%%%%%%$$%==========$$%%%%%%%%%%$#*.....",
".*#%%%%%%%%%%%%=%%$$=========$$%%%%%%%%%%%%$#*....",
".*#%%%%%%%%%%%%====$$=======$$==%%%%%%%%%%%%#*....",
".*#%%%%%%%%%%%%=====$$$$$$$$$====%%%%%%%%%%%#&    ",
"+@#%%%%%%%%%%=======$$$---$$$=====%%%%%%%%%%$&    ",
"+@#%%%%%%%%%%%=====$$$--;;-$$=====%%%%%%%%%%$&    ",
"+@#%%%%%%%%%%%%====$$--;;;--$======%%%%%%%%%$&    ",
" &$$%%%%%%%%%%%%%$$$$---;---$======%%%%%%%%%#@++++",
"  &$%%%%%%%%%%%%$$$=$$-----$$$$$$$%%%%%%%%%$#@++++",
"  &$$%%%%%%%%%$$$====$$---$$$===$$$$$$%%%%%#>+++++",
"   &$$$$%%%%$$$$%====$$$$$$$=====%%%$$$$$$$$$&    ",
"....**,#$$$$$$%%======$==$$=====%%%%%%%%%%%$$$&   ",
".....*#$%%%%%%%%%%%===$===$$===%%%%%%%%%%%%%%$$&  ",
"    &$$%%%%%%%%%%%====$====$$=%%%%%%%%%%%%%%%%$$& ",
"   &$$%%%%%%%%%%%%%%%$$=====$$%%%%%%%%%%%%%%%%%#@+",
"   &$%%%%%%%%%%%%%%%$$===%%=%$$%%%%%%%%%%%%%%%%#@+",
"+++@#%%%%%%%%%%%%%%%$%%%%%%%%%$%%%%%%%%%%%%%%%%#@+",
"+  &$%%%%%%%%%%%%%%%$%%%%%%%%%$$%%%%%%%%%%%%%%$#@.",
" ++@#%%%%%%%%%%%%%%%$%%%%%%%%%%$$%%%%%%%%%%%%$#*..",
"+++@#%%%%%%%%%%%%%%$$%%%%%%%%%%%$%%%%%%%%%%%$#*...",
"+++@#$%%%%%%%%%%%%%$%%%%%%%%%%%%$$%%%%%%%%%$$#*...",
"+++*#$$%%%%%%%%%%%$$%%%%%%%%%%%%%$$%%%%%%%$##*....",
"    &$$%%%%%%%%%%$$%%%%%%%%%%%%%%%$$%%%%%%$&&     ",
"+++++@#$$%%%%%%%$$%%%%%%%%%%%%%%%%$$$$%%$$$&      ",
"      &$$$$$$%%$$$%%%%%%%%%%%%%%%%$&&$$$$&&       ",
"       &&&&$$$$$$%%%%%%%%%%%%%%%%%$& &&&&         ",
"           &&&&&###$%%%%%%%%%%%%%$$&              ",
"................***#########$$$$$&&        +++++++",
"....      .........*********&&&&&  +++++++++++++++",
"          .........        +++++++++++++++++++++++",
"                ++++++++++++++++++++++++++        "};
