/* XPM */
static char * home_xpm[] = {
"50 50 8 1",
" 	c #FFFFFF",
".	c #000000",
"+	c #986120",
"@	c #70462F",
"#	c #983B05",
"$	c #D4A265",
"%	c #164C8C",
"&	c #32210D",
"                                                  ",
"                                                  ",
"                                                  ",
"                                                  ",
"                                                  ",
"                                                  ",
"                                                  ",
"                                                  ",
"                                                  ",
"                  ...............                 ",
"                ...++++.@@@@@@.#...               ",
"           .......+++++..@@@@@.###...             ",
"         ...+++++.+++++..@@@@..#####..            ",
"        ...+++++.......@..@..@..###....           ",
"       ..#...++..###.@@@@...@@@.....++..          ",
"      ..####....####..@@@..@@@@@@@.++++...        ",
"     ...####...#####......#.@@@@@...+++.#..       ",
"    ..@.####.++......@@@@.#....@@.@.....##..      ",
"    .@@..##..+++...@@@@@@.####...@@@@.#####.      ",
"    .@@@@...+++++.#.@@@@..#####.@@@@@.#####..     ",
"   ..@@@@@@.+++++.#.....+.#####...@@@@...##..     ",
"   ...@@@@@......#####.+++......++............    ",
"   .##......@@@@.#####.+++..+++++..+.##..@@@@.    ",
"   .####..@@@@@@@.####.++++.......++..##...@@.    ",
"   .#........@@...........++++++++++.....+....    ",
"   ...$$$$$$....$$$$$$$$$............$$$......    ",
"     .$$$$$$$$$$$$$$$$$$$$$$$$$$$$$$$$$$$$.       ",
"     .$$$$$$....$$$$$$$$$$$$$$$$$$$$$$$$$$.       ",
"     .$$$$$..%%...$$$$$$$$$$$$$$$$$$$$$$$$.       ",
"     ..$$$..%%%%%..$$$$$$$$$....$$$$$$$$$$.       ",
"      .$$$.%%%%%%%.$$$$$$$...&&...$$$$$$$$.       ",
"      .$$$.%%%%%%%.$$$$$$..&&&&&&..$$$$$$..       ",
"      .$$$.%%%%%%%.$$$$$..&&&&&&&&..$$$$$.        ",
"      .$$$..%%%%%..$$$$..&&&&&&&&&&..$$$$.        ",
"      ..$$$..%%%..$$$$$.&&&&&&&&&&&&.$$$$.        ",
"       .$$$$.....$$$$$$.&&&&&&&&&&&&.$$$$.        ",
"       .$$$$$$$$$$$$$$$.&&&&&&&&&&&&..$$$.        ",
"       .$$$$$$$$$$$$$$..&&&&&&&....&&.$$$.        ",
"       .$$$$$$$$$$$$$$.&&&&&&&&&&&&&&.$$$.        ",
"       .$$$$$$$$$$$$$$.&&&&&&&&&&&&&&..$$.        ",
"       ..$$$$$$$$$$$$$.&&&&&&&&&&&&&&&.$$.        ",
"        .$$$$$$$$$$$$$.&&&&&&&&&&&&&&&.$$.        ",
"        ..$$$$$$$$$$$$.&&&&&&&&&&&&&&&.$..        ",
"         ..$$$$$$$$$$$.&&&&&&&&&&&&&&&...         ",
"          ..$$$$$$$....&&&&&&&&&&&&&&&..          ",
"           ............................           ",
"                                                  ",
"                                                  ",
"                                                  ",
"                                                  "};
