/* XPM */
static char * lake_xpm[] = {
"50 50 5 1",
" 	c None",
".	c #A58625",
"+	c #000000",
"@	c #128AA5",
"#	c #FFFFFF",
"                                                  ",
"                                                  ",
"                                                  ",
"                 ....................             ",
"              .......++++++++++++++....           ",
"            ....++++++@@@@@@@@@@@@+++++...        ",
"          ....+++@@@@@@@@@@@@@@@@@@@@@+++..       ",
"         ...+++@@@@@@@@@@@@@@@@@@@@@@@@@++..      ",
"        ...++@@@@@@@@@@@@@@@@@@@@@@@@@@@@++.      ",
"       ..+++@@@@@@@@@@@@@@@@@@@@@@@@@@@@@@++.     ",
"      ..++@@@@@@@@@@@@########@@@@@@@@@@@@@+..    ",
"     ...+@@@@@@@@@@@@##@@@@@@@@@@@@@@###@@@+..    ",
"    ...++@@@@@@@@@@@@@@@@@@@@@@@#####@@@@@@++..   ",
"   ...++@@@@@####@@@@@@@@@@@@@@@@@@@@@@@@@@@+..   ",
"   ..++@@@@##@@@@@@@@@@@@@@@@@@@@@@@@@@@@@@@++.   ",
"   .++@@@@#@@@@@@@@@@@@@@@@@@@@@@@@@@@@@@@@@@+.   ",
"   .+@@@@@@@@@@@@@@@@@@@@@@@@@@@@@@@@@@@@@@@@+.   ",
"   .+@@@@@@@@@@@@@@@@@@@@@@@@@@@@@@@@@@@@@@@@+..  ",
"  ..+@@@@@@@@@@@@@@@@@@@@@@@@@@@###@@@@@@@@@@+..  ",
"  ..+@@@@@@@@@@@@@@@@@@@@@@@@####@@@@@@@@@@@@++.  ",
"  ..+@@@@@@@@@@@@@@@@@@@@@@@#@@@@@@@@@@@@@@@@@+.. ",
"   .+@@@@@@@@@@@@@@@@@@@@@@@@@@@@@@@@@@@@@@@@@++. ",
"   .++@@@@@@@@@@@@@@@@@@@@@@@@@@@@@@@@@@@@@@@@@+. ",
"   ..+@@@@@@#####@@@@@@@@@@@@@@@@@@@@@@@@@@@@@@+. ",
"   ..+@@@@@##@@@@@@@@@@@@@@@@@@@@@@@@@@@@@@@@@@++ ",
"   ..+@@@@@#@@@@@@@@@@@@@@@@@@@@@@@@@@@@@@@@@@@@+ ",
"    .+@@@@@@@@@@@@@@@@@@@@@@@@@@@@@@@@@@@@@@@@@@+.",
"    .++@@@@@@@@@@@@@@@@@@@@@@@@@@@@@@@@@@@@@@@@@+.",
"    ..+@@@@@@@@@@@@@@@@@@@@@@@@@@@@@@@@#@@@@@@@@+ ",
"    ..+@@@@@@@@@@@@@@@@@@@@@@@@@@@@@####@@@@@@@@+ ",
"     .++@@@@@@@@@@@@@###@@@@@@@@@@###@@@@@@@@@@@+ ",
"      .+@@@@#####@@@@@@@@@@@@@@@@@@@@@@@@@@@@@@++ ",
"      .+@@@@@@@@@@@@@@@@@@@@@@@@@@@@@@@@@@@@@@++. ",
"      .++@@@@@@@@@@@@@@@@@@@@@@@@@@@@@@@@@@@@++.. ",
"       .++@@@@@@@@@@@@@@@@@@@@@@@@@@@@@@@@@@++... ",
"       ..++@@@@@@@@@@@@@@@@@@@@@@@@@@@@@@@@++...  ",
"        ..++@@@@@@@@@@@@@@@@@@@@@@@@@@@@@@++...   ",
"        ...++@@@@@@@@@@@@######@@@@@@@@@@@+...    ",
"          ..++@@@@@@@@@@##@@@@@@@@@@@@@@+++..     ",
"            .+++@@@@@@@@#@@@@@@@@@@@@@@@+..       ",
"             ..+++@@@@@@@@@@@@@@@@@@@@+++.        ",
"             ....++@@@@@@@@@@@@@@@@++++..         ",
"                ..++++@@@@@@@@@@@+++....          ",
"                  ...+++++++++++++.....           ",
"                   ..................             ",
"                      .....    ...                ",
"                                                  ",
"                                                  ",
"                                                  ",
"                                                  "};
