/* XPM */
static char * lake_xpm[] = {
"50 50 3 1",
" 	c #FFFFFF",
".	c #000000",
"+	c #128AA5",
"                                                  ",
"                                                  ",
"                                                  ",
"                                                  ",
"                     ..............               ",
"                ......++++++++++++.....           ",
"              ...+++++++++++++++++++++...         ",
"            ...+++++++++++++++++++++++++..        ",
"           ..++++++++++++++++++++++++++++..       ",
"         ...++++++++++++++++++++++++++++++..      ",
"        ..++++++++++++        +++++++++++++.      ",
"        .++++++++++++  ++++++++++++++   +++..     ",
"       ..+++++++++++++++++++++++     ++++++..     ",
"      ..+++++    +++++++++++++++++++++++++++.     ",
"     ..++++  +++++++++++++++++++++++++++++++..    ",
"    ..++++ ++++++++++++++++++++++++++++++++++.    ",
"    .++++++++++++++++++++++++++++++++++++++++.    ",
"    .++++++++++++++++++++++++++++++++++++++++.    ",
"    .+++++++++++++++++++++++++++   ++++++++++.    ",
"    .++++++++++++++++++++++++    ++++++++++++..   ",
"    .+++++++++++++++++++++++ +++++++++++++++++.   ",
"    .+++++++++++++++++++++++++++++++++++++++++..  ",
"    ..+++++++++++++++++++++++++++++++++++++++++.  ",
"     .++++++     ++++++++++++++++++++++++++++++.  ",
"     .+++++  ++++++++++++++++++++++++++++++++++.. ",
"     .+++++ ++++++++++++++++++++++++++++++++++++. ",
"     .++++++++++++++++++++++++++++++++++++++++++. ",
"     ..+++++++++++++++++++++++++++++++++++++++++. ",
"      .++++++++++++++++++++++++++++++++ ++++++++. ",
"      .+++++++++++++++++++++++++++++    ++++++++. ",
"      ..+++++++++++++   ++++++++++   +++++++++++. ",
"       .++++     ++++++++++++++++++++++++++++++.. ",
"       .++++++++++++++++++++++++++++++++++++++..  ",
"       ..++++++++++++++++++++++++++++++++++++..   ",
"        ..++++++++++++++++++++++++++++++++++..    ",
"         ..++++++++++++++++++++++++++++++++..     ",
"          ..++++++++++++++++++++++++++++++..      ",
"           ..++++++++++++      +++++++++++.       ",
"            ..++++++++++  ++++++++++++++...       ",
"             ...++++++++ +++++++++++++++.         ",
"               ...++++++++++++++++++++...         ",
"                 ..++++++++++++++++....           ",
"                  ....+++++++++++...              ",
"                     .............                ",
"                                                  ",
"                                                  ",
"                                                  ",
"                                                  ",
"                                                  ",
"                                                  "};
