/* XPM */
static char * mama_xpm[] = {
"50 50 13 1",
" 	c #0A290C",
".	c #142D15",
"+	c #493408",
"@	c #115E14",
"#	c #055D0A",
"$	c #024006",
"%	c #0E4211",
"&	c #174519",
"*	c #1B301C",
"=	c #18601B",
"-	c #FFFFFF",
";	c #F2CF8A",
">	c #000000",
"      ............           ..+++++++.@@#####$$$$",
"     .++++++++++++.        ..++++++++++++%%$$$$$$$",
"    .++++++++++++++@@#####@++++++++++++++++%%$$$  ",
"   .+++++++++++++++++%$$$%+++++++%%%+++++++++.    ",
"##%+++++%%%%%%%&++++++%$%++++++%%$  ...+++++++.   ",
"##%++++%$%%%%%+++++++++&+++++++.       ..++++++@##",
"#@++++%%%++++++++++++++++++++++@#########@@+++++@#",
".+++++*++++++++++++++++++++++++@###########@+++++@",
"+++++*+++++++++++++++++++++++++@@@##########@++++%",
"++++*++++++*.@@=++++++++++++++++++@######    .++++",
"+++*+++++++++++++++++++++++++++++++..        .++++",
"+++*++++-++++++++++++++++++++++++++++.       .++++",
"+++++++-++++++++++++++++++++++;;++++++.       .+++",
"+++++++++++++-;+++++++++++++++;;;++++++.      .+++",
"++++++-++++.*;;++++++++++++++++;;;;++++.      .+++",
"++++++++++..;;+++++++++++++++++++;;;++++%##$$$%+++",
"+++++-++++@@;++++++++;;;;;;+++++++;;+++++%$$$$%+++",
"-+++-++++@@;+++++++;;;;;;;;;;;;;+++;;++++%$$$$$%++",
"-+++-++++..;+++++;;;;;;;;;;;;;;;+++;;&++++%$$  .++",
"++++-+++@@;+++++;;;;;;;;;;;;;;;;;++;;%++++.####@++",
"++++-+++@@;++++;;;;;>>>;;;;>>>;;;+++;@@+++@####@++",
"+++-++++%%++++;;;;;;>>>;;;;>>>;;;+++;@@++++@###@++",
"+++-++++%%++++;;;;;;>>>;;;;>>>;;;+++;@@++++@#  .++",
"+++-+++%$%+++;;;;;;;;;;;;;;;;;;;;+++;. .+++.   .++",
"+++-+++%%++++;;;;;;;;;;;;;;;;;;;;+++;. .++++.   .+",
"++&++++..++++;;;;;;;;;;;;;;;;;;;;+++;. .++++.   .+",
"++.++++..+++;;;;;;>>>>;;;;;;;>>;;;++;%$$%+++%$$$%+",
"++.+++. .+++;;;;;;>>>>>>;;;>>>>;;;++%$$$%+++%$$$%+",
"...+++. .+++;;;;;;>>>>>>>>>>>>>;;;++%$$$%++++%$$%+",
"  .+++.#@+++;;;;;;;;>>>>>>>>>>>;;;++%$$$%++++.   .",
"##@+++@#@+++=;;;;;;;;>>>>>>>>>;;;;++%$   .+++.    ",
"##@+++@#@+++@;;;;;;;;;;;;;;;;;;;;+++.    .+++.    ",
"  .+++. .+++..;;;;;;;;;;;;;;;;;;;+++.    .+++.    ",
"  .+++. .+++..;;;;;;;;;;;;;;;;;;+++.     .+++. $$$",
"  .+++. .+++. ..;;;;;;;;;;;;;;;;+++.  $$$%+++%$$$$",
"$$%+++%$%+++.   .;;;;;;;;;;;;;;;+++%     .+++%$$$$",
"$ .+++. .+++.   $%%;;;;;;;;;;;;*+++.     .+++%$$$#",
" $%+++%$%+++%$$$$$$%%%..........+++.     .+++@####",
"$$%+++% .+++@#                 .+++.    #@+++@####",
"$$%++++..+++@##################@+++@#####@+++@####",
"$$%++++..+++@#################@++++@#####@+++@####",
"   .+++..+++@#################@++++@#####@+++.    ",
"$$$%+++%%+++%$$$$$$$$$$       .+++.      .+++.    ",
"   .+++..+++.                 .+++.      .+++.    ",
"   .+++..++++.                .+++.      .+++.    ",
"    ... .++++.  ############  .+++.       ...     ",
"########@++++@##############   ...         $$$$$$$",
"####     .+++@##############       $$$$$$$$$$$$$$$",
"          @@@######        $$$$$$$$$$$$$$$$$$$$$$$",
"                $$$$$$$$$$$$$$$$$$$$$$$$$$        "};
