/* XPM */
static char * snail_xpm[] = {
"50 50 7 1",
" 	c #FFFFFF",
".	c #000000",
"+	c #42A51E",
"@	c #FFF700",
"#	c #6E4A27",
"$	c #403E3E",
"%	c #646464",
"                                                  ",
"                                                  ",
"                                                  ",
"                                                  ",
"                                                  ",
"                                         ....     ",
"                             ....       ..++..    ",
"                            ..++..     ..++. ..   ",
"                           ..++. ..    .++...+.   ",
"                           .++...+.    ..++.+..   ",
"                           ..++.+..     ..++..    ",
"                            ..++..       ....     ",
"                             ....          .      ",
"               ......          ..         ..      ",
"          .......@@.....        ..        .       ",
"        ....@@@@@@@@##...        .. .... ..       ",
"       ..###@@@@@@@@####...       ...++...        ",
"       .#####@@@@@@@@####..        .++++.         ",
"      ..######@@@@@@@#####..      ..++++..        ",
"     ..@######@@@@@@@######..    ..++++++..       ",
"    .@@@@######@@@@@@#######..   .++++++++.       ",
"    .@@@@@###.......@######@@.. ..++++++++..      ",
"   .@@@@@@@#..@####...####@@@@...+++++++.++.      ",
"   .@@@@@@@..##@#####..##@@@@@@..+++.....++.      ",
"   .@@@@@@@..###@..###..@@@@@@@..++++++++++.      ",
"   .@@@@@@@.####....###..@@@@@@#.++++++++++.      ",
"   .@@@@@@@.####.##.###..@@@@@###.+++++++++.      ",
"   .@@@@###.###@..#.####.@@@#####.+++++++++.      ",
"   .@@#####..@@@###.####..@######.+++++++++.      ",
"   .########..####..@@###.#######.++++++++..      ",
"   .#########......@@@@##.#######.++++++++.       ",
"   ..##########@@@@@@@@@..#####...++++++++.       ",
"    .###########@@@@@@@@........++++++++++.       ",
"    ..###########@@@@@@....+++++++++++++++.       ",
"     .############@@@@..++++++++++++++++++.       ",
"     ..###########@@@..+++++++++++++++++++.       ",
"      ..###########...++++++++++++++++++++.       ",
"     .......###......+++++++++++++++++++++.       ",
"   ...+++++......+++++++++++++++++++++++...       ",
"  ..++++++++++++++++++++++++++++++++++....        ",
"  ..+++++++++++++++++++++++............$$$        ",
"  $..+++++++++++++++........$$$$$$$$$$$$%         ",
"  %$.................$$$$$$$%%%%%%%%%%%%          ",
"  %%$$$$$$$$$$$$$$$$$%%%%%%%%                     ",
"  %%%%%%%%%%%%%%%%%%%%%%%                         ",
"    %%%%%%%%%%%%%%%%%%                            ",
"    %%%%%%%%%%%%%%%%                              ",
"      %%%%%%%%%%%%                                ",
"        %%%%%%%%%                                 ",
"                                                  "};
