/* XPM */
static char * snail_xpm[] = {
"50 50 27 1",
" 	c #0A290C",
".	c #055D0A",
"+	c #024006",
"@	c #142D15",
"#	c #000100",
"$	c #115E14",
"%	c #000000",
"&	c #42A51E",
"*	c #FFFFFF",
"=	c #0E4211",
"-	c #1B301C",
";	c #FFF700",
">	c #6E4A27",
",	c #18601B",
"'	c #174519",
")	c #030E03",
"!	c #09270B",
"~	c #041805",
"{	c #051C06",
"]	c #09280B",
"^	c #0A280C",
"/	c #061D07",
"(	c #055A0A",
"_	c #055C0A",
":	c #055409",
"<	c #054F08",
"[	c #042F06",
"                                       .......++++",
"                              ..........++++++++++",
"                   .............++++++++++++++++  ",
"        .............++++++++++++++++++++         ",
"..++++++++++++++++++++++++++++++++       @@@@     ",
"..+++++++++++++++++++++++++  @@@@       @####$....",
"..+++++++......++++        .$####$.....$#%&&%#$...",
"         ..................$#%&&%#$...$#%&&%*%#$..",
"         .................$#%&&%*%#$..$#&&%%%&#$.+",
"             .............$#&&%%%&#$..$#%&&%&%%=++",
"    ......................$#%&&%&%#@   @%%&&%%@+++",
"                      +++++=#%&&%%@     @%%%%@    ",
"+++++++++++++++======++++   @%%%%@       @-%@     ",
"++++++++++@@@@@%%%%%%@@@     @@%%@       @%%@     ",
"        @@%%%%%%%;;%%%%%@      @%%@ @@@@ @%@   +++",
" ......$##%%;;;;;;;;>>%%%@@  ...$##,%%##'##=++++++",
" .....$#%>>>;;;;;;;;>>>>%##$.....$##%&&%##=+++++++",
" .....$#>>>>>;;;;;;;;>>>>%#$......,#&&&&#'++++++++",
"     @%%>>>>>>;;;;;;;>>>>>%#=++++=#%&&&&%#=++     ",
"    @%%;>>>>>>;;;;;;;>>>>>>%%@ +=#%&&&&&&%%$......",
"...$#;;;;>>>>>>;;;;;;>>>>>>>%%@+=#&&&&&&&&#$......",
"...$#;;;;;>>>%%%%%%%;>>>>>>;;%%,#%&&&&&&&&%#$.....",
"..=#;;;;;;;>%%;>>>>%%%>>>>;;;;%#%&&&&&&&%&&#$     ",
"++=#;;;;;;;%%>>;>>>>>%%>>;;;;;;%%&&&%%%%%&&%@     ",
"++=#;;;;;;;%%>>>;%%>>>%%;;;;;;;%%&&&&&&&&&&%@     ",
"++=#;;;;;;;%>>>>%%%%>>>%%;;;;;;>%&&&&&&&&&&%@     ",
"  @%;;;;;;;%>>>>%>>%>>>%%;;;;;>>>%&&&&&&&&&#=+++++",
"  @%;;;;>>>%>>>;%%>%>>>>%;;;>>>>>%&&&&&&&&&#=+++++",
"  @%;;>>>>>%%;;;>>>%>>>>%%;>>>>>>%&&&&&&&&&#=+++++",
"  @%>>>>>>>>%%>>>>%%;;>>>%>>>>>>>%&&&&&&&&%#@     ",
"..$#>>>>>>>>>%%%%%%;;;;>>%>>>>>>>%&&&&&&&&%@      ",
"..$#%>>>>>>>>>>;;;;;;;;;%%>>>>>%%%&&&&&&&&%@      ",
"   @%>>>>>>>>>>>;;;;;;;;%%%%%%%%&&&&&&&&&&%@      ",
"   @%%>>>>>>>>>>>;;;;;;%%%%&&&&&&&&&&&&&&&%@   +++",
"    @%>>>>>>>>>>>>;;;;%%&&&&&&&&&&&&&&&&&&#=++++++",
"++++=#%>>>>>>>>>>>;;;%%&&&&&&&&&&&&&&&&&&&#=++++++",
"+    -%%>>>>>>>>>>>%%%&&&&&&&&&&&&&&&&&&&&#=+++++.",
" ++==#%%%%%%>>>%%%%%%&&&&&&&&&&&&&&&&&&&&&#$......",
"++=##%&&&&&%%%%%%&&&&&&&&&&&&&&&&&&&&&&&%%#$......",
"+=#%&&&&&&&&&&&&&&&&&&&&&&&&&&&&&&&&&&%%%#$.......",
"+=#%&&&&&&&&&&&&&&&&&&&&&&&%%%%%%%%%%%%)))$.......",
" !)%%&&&&&&&&&&&&&&&%%%%%%%%))))))))))))~~        ",
"++))%%%%%%%%%%%%%%%%%))))))))~~~~~~~~~~~{         ",
" !~)))))))))))))))))))~~~~~~~~~{]                 ",
" ^~~~~~~~~~~~~~~~~~~~~~~~~/^                      ",
"   ^~~~~~~~~~~~~~~~~~~(.._:.                      ",
"....(<~~~~~~~~~~~~~[........               +++++++",
"....  ~~~~~~~~~~~[..........       +++++++++++++++",
"          .........        +++++++++++++++++++++++",
"                ++++++++++++++++++++++++++        "};
